P1
96 57
000000000000000000000000000000000000001111100000000000000000000000000000000000000000000000000000
000000000000000000000000000000000000001111100000000000000000000000000000000000000000000000000000
000000000000000000000000000000000000011111100000000000000000000000000000000000000000000000000000
000000000000000000000000000000000000011111100000000000000000000000000000000000000000000000000000
000000000000000011111110000000000000000000000000000000000000000000000000000000000000000000000000
000000000000000011111110000000000000000000000000000000000000000000000000000000000000000000000000
000000000000000011111110000000000000000000000000011111111111111111111111111111111111000000000000
000000000000000001111111111111100000000000000000111111111111111111111111111111111111000000000000
000000000000000001111111111111110000000000000000111111111111111111111111111111111111000000000000
000000000000000001111111111111111000000000000000111111111111111111111111111111111111000000000000
000000000000000001111111111111111100000000000001111111111111111111111111111111111111000000000000
000000000000000000000000000000111110000000000001110000000000000000000000000000000000000000000000
000000000000000000000000000000011111111111111111110000000000000000000000000000000000000000000000
000000000000000000000000000000001111111111111111110000000000000000000000000000000000000000000000
000000000000000000000000000000000111111111111111110000000000000000000000000000000000000000000000
000000000000000000000000000000000011111111111111100000000000000000000000000000000000000000000000
000000000000000000000000000000000001111111011111100000000000111111111111111111111111111111111111
000000000000000000000000000000000000000000001111110000000000111111111111111111111111111111111111
111111111111111111111111110000000000000000001111110000000000111111111111111111111111111111111111
111111111111111111111111110000000000000000000111111000000000111111111111111111111111111111111111
111111111111111111111111110000000000000000000011111000000000000000000000000000000000000000000000
111111111111111111111111110000000000000000000011111100000000000000000000000000000000000000000000
000000000000000000001111110000000000000000000001111100000000000000000000000000000000000000000000
000000000000000000001111110000000000000000000001111100000000000000000000000000000000000000000000
000000000000000000001111110000000000000000000000111111000000000000000000000000000000000000000000
000000000000000000000000000000000000000000000000111111111000000000000000000000000000000000000000
000000000000000000000000000000000011111100000000011111111111111111111111111111111110000000000000
000000000000000000000000000000000011111100000000000011111111111111111111111111111110000000000000
000000000000000000000000000000000011111100000000000000111111111111111111111111111110000000000000
000000000000000000000000000000000011111100000000000000000000000000000000000001111110000000000000
000000000000000000000000000000000011111100000000000000000000000000000000000001111110000000000000
000000000000000000000000000000000011111100000000000000000000000000000000000001111110000000000000
000000000000000000000000000000000011111100000000000000000000000000000000000001111110000000000000
000000000000000000000000000000000011111100000000000000000000000000000000000001111110000000000000
000000000000011111111111111111111111111111111111111111111110000000000000000001111110000000000000
000000000000011111111111111111111111111111111111111111111110000000000000000001111110000000000000
000000000000011111111111111111111111111111111111111111111110000000000000000001111110000000000000
000000000000011111111111111111111111111100000000000000000000000000000000000001111110000000000000
000000000000000000000000000000000011111100000000000000000000000000000000000001111110000000000000
000000000000000000000000000000000011111100000000000000000000000000000000000001111110000000000000
000000000000000000000000000000000011111100000000000000000000000000000000000001111110000000000000
000000000000000000000000000000000011111100000000000000000000000000000000000001111110000000000000
000000000000000000000000000000000011111100000000000000000000000011111111111111111110000000000000
000000000000000000111111000000000011111100000000000000000000000011111111111111111110000000000000
000000000000000000111111000000000011111100000000000000000000000011111111111111111110000000000000
000000000000000000111111000000000011111100000000000000000000000011111100000000000000000000000000
000000000000000000111111000000000011111100000000000000000000000011111100000000000000000000000000
111111111111111111111111000000000011111100000000000000000000000011111100000000000000000000000000
111111111111111111111111000000000011111100000000000000000000000011111100000000000000000000000000
111111111111111111111111000000000000000000000000000000000000000011111100000000000000000000000000
000000000000000000000000000000000000000000000000000000000000000011111100000000000000000000000000
000000000000000000000000000000000000000000000000000000000000000011111100000000000000000000000000
000000000000000000000000000000000000000000000000000000000000000011111100000000000000000000000000
000000000000000000000000000000000000000000000000000000000000000011111100000000000000000000000000
000000000000000000000000000000000000000000000000000000000000000011111100000000000000000000000000
000000000000000000000000000000000000000000000000000000000000000011111100000000000000000000000000
000000000000000000000000000000000000000000000000000000000000000011111100000000000000000000000000
