P1
# CREATOR: GIMP PNM Filter Version 1.1
30 30
0000011000000000000000000000000000011000000000000000000000000000011000
0000000000000000000000000110000000000000000000000000000010000000000000
0000000000000000100000000001111111110000000000100000000000100000110000
0000001000000000001000001100000000001000000000001000001100000000001000
0000000010000011000000000011000000000010000011000000000011000000000010
0000110000000000110000000000110000110000000000110000000000110000110000
0000000100000000001100001100000000000100000000011100001100000000000111
1111111111000011000000000001111000000000000011000000000000000000000000
0000110000000000000000000000000000110000000000000000000000000000110000
0000000000000000000000001100000000000000000000000000001100000000001111
1110000000000011000000000011111111111111111111000000000000000000000000
0000000000000000000000000000000000000000000000000000000000000000000000
000000000000000000000000000000000000000000000000000000000000