P1
# CREATOR: GIMP PNM Filter Version 1.1
50 50
0000000000000000000000111000000000000000000000000000000000000000000000
0011100000000000000000000000000000000000000000000000111000000000000000
0000000000000000000000000000000011100000000000000000000000000000000000
0000000000001110000000000000000000000000000000000000000000000001100000
0000000000000000000000000000000000000000000110000000000000000000000000
0000000000000000000000011000000000000000000000000000000000000000000000
0001100000000000000000000000000000000000000000000000011000000000000000
0000000000000000000000000000000001100000000000000000000000000000000000
0000000000000110000000000000000000000000000000000000000000000001100000
0000000000000000000000000000000000000000000110000000000000000000000000
0000000000000000000000011000000000000000000000000000000000000000000000
0001100000000000000000000000000000000000000000000000011000000000000000
0000000000000000000000000010111111100000000000000000000000000000000000
0000011111111100000000000000000000000000000000000000000011100000000000
0000000000000000000000000000000000001100000000000000000000000000000000
0000000000000000110000000000111000000000000000000000000000000000001100
0001111111110000000000000000000000000000000000110000011111101100000000
0000000000000000000000000011100000000000110000000000000000000000000000
0000000110000000000011000000000000000000000000000000000001100000000000
1100000000000000000000000000000000000111100000000011000000000000000000
0000000000000000011111111000001100000000000000000000000000000000000001
1111100000110000000000000000000000000000000000000000000000001100000000
0000000000000000000000000000000000000000110000000000000000000000000000
0000000000000000000011000000000000000000000000000000000000000000000000
1100000000000000000000000000000000000000011111111111000000000000000000
0000000000000000000011111111111100000000000000000000000000000000000000
0110000000000000000000000000000000000000000000000001100000000000000000
0000000000000000000000000000000110000000000000000000000000000000000000
0000000000011000000000000000000000000000000000000000000000000110000000
0000000000000000000000000000000000000000011000000000000000000000000000
0000000000000000000001100000000000000000000000000000000000000000000000
0110000000000000000000000000000000000000000000000001100000000000000000
0000000000000000000000000000000110000000000000000000000000000000000000
0000000000011000000000000000000000000000000000000000000000000110000000
0000000000000000000000000000000000000000011100000000000000000000000000
00000000000000000000011100000000000000000000000000