P1
# CREATOR: GIMP PNM Filter Version 1.1
30 30
0000000000000000000000000000000000000000000000000000000000000000000000
0000000000000000000011100000000000000000000000000011111100000000000000
0000000000111111111000000000000000000000000111111111000000000000000000
0000001111111110000000000000000000000001111111110000000000000000000000
0011111111000000000000000000000000011111100000000000000000000000000011
1000000000000000000000000000000000000000000000000000000000000000000000
0000000000000000000000000000000000000000000000000000000000000000000001
1000000000000000000000000000111111000000000000000000000000011111111000
0000000000000000000001111111110000000000000000000000001111111111000000
0000000000000000011111111110000000000000000000000011111111110000000000
0000000000000111111100000000000000000000000000111100000000000000000000
0000000001000000000000000000000000000000000000000000000000000000000000
000000000000000000000000000000000000000000000000000000000000